<?xml version="1.0" standalone="no"?>
<!DOCTYPE svg PUBLIC "-//W3C//DTD SVG 20010904//EN"
 "http://www.w3.org/TR/2001/REC-SVG-20010904/DTD/svg10.dtd">
<svg version="1.0" xmlns="http://www.w3.org/2000/svg"
 width="32.000000pt" height="32.000000pt" viewBox="0 0 32.000000 32.000000"
 preserveAspectRatio="xMidYMid meet">

<g transform="translate(0.000000,32.000000) scale(0.100000,-0.100000)"
fill="#000000" stroke="none">
<path d="M0 160 l0 -160 160 0 160 0 0 160 0 160 -160 0 -160 0 0 -160z m226
119 c5 -8 9 -7 14 1 13 21 42 3 38 -22 -2 -19 -10 -23 -45 -25 -34 -1 -43 3
-49 19 -9 28 27 51 42 27z m-145 -11 c0 -10 2 -10 6 0 2 6 16 12 30 12 19 0
24 -4 19 -16 -3 -9 -6 -20 -6 -25 0 -5 -19 -8 -42 -6 -36 2 -44 6 -46 25 -3
17 2 22 17 22 12 0 21 -6 22 -12z m169 -152 l0 -85 -86 -3 c-47 -2 -88 -1 -90
1 -2 2 -4 42 -4 88 l0 83 90 0 90 0 0 -84z"/>
</g>
</svg>
